<?xml version="1.0" encoding="utf-8"?>
<!-- Generator: Adobe Illustrator 16.0.0, SVG Export Plug-In . SVG Version: 6.00 Build 0)  -->
<!DOCTYPE svg PUBLIC "-//W3C//DTD SVG 1.1//EN" "http://www.w3.org/Graphics/SVG/1.1/DTD/svg11.dtd">
<svg version="1.1" id="Layer_1" xmlns="http://www.w3.org/2000/svg" xmlns:xlink="http://www.w3.org/1999/xlink" x="0px" y="0px"
	 width="308.452px" height="58.102px" viewBox="0 0 308.452 58.102" enable-background="new 0 0 308.452 58.102"
	 xml:space="preserve">
<path fill="#FFFFFF" stroke="#D2044C" d="M0.516,39.17L0.5,15.717c0-9.861,5.425-15.069,14.42-15.069h12.097h11.963v12.725v10.442
	c0,9.715-5.777,15.354-14.771,15.354L0.516,39.17z"/>
<g>
	<path fill="#D2044C" d="M54.727,55.723c-1.178,0.614-2.471,0.87-3.802,0.87c-2.829,0-4.891-1.856-4.891-4.763
		s2.062-4.762,4.891-4.762c1.434,0,2.701,0.319,3.611,1.165l-1.408,1.536c-0.539-0.563-1.191-0.858-2.203-0.858
		c-1.703,0-2.816,1.229-2.816,2.919c0,1.69,1.114,2.919,2.816,2.919c0.871,0,1.511-0.243,1.882-0.448V52.83H51.18v-1.844h3.546
		V55.723z"/>
	<path fill="#D2044C" d="M57.324,47.299h1.996v9.063h-1.996V47.299z"/>
	<path fill="#D2044C" d="M61.111,47.299h2.279l2.24,5.939h0.025l2.279-5.939h2.139l-3.738,9.063h-1.602L61.111,47.299z"/>
	<path fill="#D2044C" d="M71.967,47.299h6.158v1.843h-4.161v1.69h3.931v1.844h-3.931v1.843h4.392v1.844h-6.389V47.299z"/>
	<path fill="#D2044C" d="M85.483,47.299h1.997v3.379h3.879v-3.379h1.997v9.063h-1.997v-3.917H87.48v3.917h-1.997V47.299z"/>
	<path fill="#D2044C" d="M100.473,47.069c2.828,0,4.891,1.855,4.891,4.762s-2.063,4.763-4.891,4.763
		c-2.83,0-4.891-1.856-4.891-4.763S97.643,47.069,100.473,47.069z M100.473,54.75c1.702,0,2.816-1.229,2.816-2.919
		c0-1.689-1.114-2.919-2.816-2.919c-1.703,0-2.816,1.229-2.816,2.919C97.656,53.521,98.77,54.75,100.473,54.75z"/>
	<path fill="#D2044C" d="M107.588,47.299h3.367c1.882,0,3.443,0.602,3.443,2.752c0,2.125-1.446,2.778-3.354,2.778h-1.459v3.533
		h-1.998V47.299z M109.586,51.139h1.331c0.704,0,1.408-0.243,1.408-1.088c0-0.935-0.947-1.063-1.716-1.063h-1.023V51.139z"/>
	<path fill="#D2044C" d="M116.6,47.299h6.158v1.843h-4.161v1.69h3.931v1.844h-3.931v1.843h4.392v1.844H116.6V47.299z"/>
	<path fill="#D2044C" d="M130.531,46.209h0.737v11.893h-0.737V46.209z"/>
	<path fill="#D2044C" d="M147.436,55.723c-1.178,0.614-2.471,0.87-3.803,0.87c-2.828,0-4.891-1.856-4.891-4.763
		s2.063-4.762,4.891-4.762c1.435,0,2.701,0.319,3.611,1.165l-1.408,1.536c-0.539-0.563-1.191-0.858-2.203-0.858
		c-1.702,0-2.816,1.229-2.816,2.919c0,1.69,1.114,2.919,2.816,2.919c0.871,0,1.512-0.243,1.883-0.448V52.83h-1.627v-1.844h3.547
		V55.723z"/>
	<path fill="#D2044C" d="M150.032,47.299h1.997v9.063h-1.997V47.299z"/>
	<path fill="#D2044C" d="M153.82,47.299h2.279l2.24,5.939h0.025l2.279-5.939h2.139l-3.738,9.063h-1.602L153.82,47.299z"/>
	<path fill="#D2044C" d="M164.676,47.299h6.157v1.843h-4.161v1.69h3.931v1.844h-3.931v1.843h4.392v1.844h-6.388V47.299z"/>
	<path fill="#D2044C" d="M178.269,47.299h1.997v7.22h3.699v1.844h-5.696V47.299z"/>
	<path fill="#D2044C" d="M185.911,47.299h1.997v9.063h-1.997V47.299z"/>
	<path fill="#D2044C" d="M190.672,47.299h6.08v1.843h-4.083v1.844h3.776v1.844h-3.776v3.533h-1.997V47.299z"/>
	<path fill="#D2044C" d="M199.133,47.299h6.157v1.843h-4.16v1.69h3.93v1.844h-3.93v1.843h4.391v1.844h-6.388V47.299z"/>
	<path fill="#D2044C" d="M213.063,46.209h0.737v11.893h-0.737V46.209z"/>
	<path fill="#D2044C" d="M229.389,55.723c-1.178,0.614-2.471,0.87-3.802,0.87c-2.83,0-4.891-1.856-4.891-4.763
		s2.061-4.762,4.891-4.762c1.434,0,2.701,0.319,3.609,1.165l-1.408,1.536c-0.537-0.563-1.19-0.858-2.201-0.858
		c-1.703,0-2.817,1.229-2.817,2.919c0,1.69,1.114,2.919,2.817,2.919c0.87,0,1.51-0.243,1.882-0.448V52.83h-1.626v-1.844h3.546
		V55.723z"/>
	<path fill="#D2044C" d="M231.986,47.299h1.997v9.063h-1.997V47.299z"/>
	<path fill="#D2044C" d="M235.774,47.299h2.279l2.24,5.939h0.025l2.279-5.939h2.138l-3.738,9.063h-1.601L235.774,47.299z"/>
	<path fill="#D2044C" d="M246.629,47.299h6.157v1.843h-4.16v1.69h3.93v1.844h-3.93v1.843h4.391v1.844h-6.388V47.299z"/>
	<path fill="#D2044C" d="M260.146,47.299h3.38c1.587,0,3.315,0.332,3.315,2.304c0,1.012-0.627,1.703-1.562,1.997v0.026
		c1.19,0.153,1.984,1.036,1.984,2.214c0,1.896-1.793,2.522-3.405,2.522h-3.713V47.299z M262.143,50.922h1.446
		c0.615,0,1.255-0.257,1.255-0.986c0-0.755-0.717-0.947-1.344-0.947h-1.357V50.922z M262.143,54.673h1.792
		c0.628,0,1.332-0.27,1.332-1.063c0-0.857-0.961-0.998-1.613-0.998h-1.511V54.673z"/>
	<path fill="#D2044C" d="M269.387,47.299h1.997v7.22h3.699v1.844h-5.696V47.299z"/>
	<path fill="#D2044C" d="M281.456,47.069c2.83,0,4.891,1.855,4.891,4.762s-2.061,4.763-4.891,4.763c-2.829,0-4.89-1.856-4.89-4.763
		S278.627,47.069,281.456,47.069z M281.456,54.75c1.703,0,2.817-1.229,2.817-2.919c0-1.689-1.114-2.919-2.817-2.919
		c-1.702,0-2.816,1.229-2.816,2.919C278.64,53.521,279.754,54.75,281.456,54.75z"/>
	<path fill="#D2044C" d="M292.978,47.069c2.829,0,4.89,1.855,4.89,4.762s-2.061,4.763-4.89,4.763c-2.83,0-4.891-1.856-4.891-4.763
		S290.147,47.069,292.978,47.069z M292.978,54.75c1.702,0,2.816-1.229,2.816-2.919c0-1.689-1.114-2.919-2.816-2.919
		c-1.703,0-2.817,1.229-2.817,2.919C290.16,53.521,291.274,54.75,292.978,54.75z"/>
	<path fill="#D2044C" d="M300.093,47.299h2.995c2.919,0,5.364,1.241,5.364,4.557c0,2.933-2.394,4.507-5.095,4.507h-3.265V47.299z
		 M302.09,54.519h1.037c1.856,0,3.252-0.704,3.252-2.765c0-1.78-1.422-2.612-3.111-2.612h-1.178V54.519z"/>
</g>
<g>
	<path fill="#D2044C" d="M74.878,39.2H45.534v-1.904c4.088,0,5.04-1.008,5.04-3.695V6.272c0-2.688-0.952-3.696-4.928-3.696V0.672
		h16.016v1.904c-4.424,0-5.376,1.008-5.376,3.696V33.6c0,2.688,1.231,3.695,4.088,3.695c4.815,0,10.64-1.68,13.104-12.488h1.735
		L74.878,39.2z"/>
	<path fill="#D2044C" d="M77.174,39.2v-1.904c3.248,0,4.256-0.56,4.256-2.352V17.136c0-1.792-1.008-2.352-4.256-2.352V12.88
		l9.52-0.336v22.4c0,1.792,1.008,2.352,4.256,2.352V39.2H77.174z M86.582,4.144c0,1.792-1.456,3.136-3.137,3.136
		c-1.68,0-3.136-1.344-3.136-3.136s1.456-3.136,3.136-3.136C85.126,1.008,86.582,2.352,86.582,4.144z"/>
	<path fill="#D2044C" d="M109.43,14.784h-6.607v20.16c0,1.792,1.008,2.352,5.6,2.352V39.2H92.518v-1.904
		c4.032,0,5.04-0.56,5.04-2.352v-20.16h-4.983V12.88h4.983V9.856c0-5.712,4.424-9.184,9.856-9.184c4.312,0,6.16,1.792,6.16,4.088
		c0,1.96-1.345,3.192-3.192,3.192c-1.568,0-2.856-0.952-2.856-2.632c0-0.952,0.448-1.96,1.12-2.52
		c-0.448-0.168-0.896-0.224-1.456-0.224c-3.136,0-4.367,2.072-4.367,4.2v6.104h6.607V14.784z"/>
	<path fill="#D2044C" d="M115.645,25.872c0,7.729,3.305,12.096,8.12,12.096c3.752,0,6.272-2.295,8.399-5.151l1.345,0.896
		c-2.521,3.696-5.601,6.16-11.592,6.16c-6.944,0-12.32-6.384-12.32-13.832c0-7.448,5.376-13.832,12.32-13.832
		c6.552,0,11.872,4.592,11.872,13.664H115.645z M128.076,23.967c0-4.031-0.783-9.855-6.271-9.855c-5.376,0-6.16,5.824-6.16,9.855
		H128.076z"/>
	<path fill="#D2044C" d="M139.613,24.975h1.568c1.064,6.272,5.544,12.992,12.544,12.992c4.2,0,8.344-2.744,8.344-7.279
		c0-12.6-22.399-5.152-22.399-20.048c0-6.72,5.992-10.64,11.983-10.64c5.097,0,7.784,3.248,9.128,3.248
		c0.841,0,1.568-2.016,1.736-2.576h1.904v12.992h-1.568c-1.456-5.544-4.647-11.76-11.144-11.76c-4.256,0-7.448,2.296-7.448,6.776
		c0,10.696,22.4,4.928,22.4,18.704c0,7.784-5.992,12.488-13.44,12.488c-5.264,0-7.28-2.912-9.408-2.912
		c-1.456,0-1.96,1.176-2.632,2.576h-1.568V24.975z"/>
	<path fill="#D2044C" d="M177.693,4.144v8.736h7.784v1.904h-7.784v20.271c0,2.353,1.456,2.912,3.08,2.912
		c2.184,0,4.088-1.567,4.088-6.047v-1.177h1.568v0.952c0,5.04-1.513,8.176-7.057,8.176c-3.92,0-6.943-1.288-6.943-6.832V14.784
		h-4.088V12.88c5.208-0.448,5.88-1.904,7.336-8.736H177.693z"/>
	<path fill="#D2044C" d="M202.445,39.2h-14.784v-1.904c3.248,0,4.256-0.56,4.256-2.352V17.136c0-1.792-1.008-2.352-4.032-2.352
		V12.88l8.904-0.336v7.616h0.112c1.176-4.48,3.023-7.952,7.672-7.952c3.08,0,4.424,2.184,4.424,3.864
		c0,1.512-1.232,2.968-2.968,2.968c-1.792,0-2.744-1.064-2.744-2.632c0-0.896,0.392-1.68,1.176-2.184
		c-0.224-0.056-0.392-0.112-0.729-0.112c-3.752,0-6.552,6.889-6.552,17.527c0,4.648,0.336,5.656,5.265,5.656V39.2z"/>
	<path fill="#D2044C" d="M215.212,25.872c0,7.729,3.304,12.096,8.12,12.096c3.752,0,6.271-2.295,8.399-5.151l1.344,0.896
		c-2.52,3.696-5.6,6.16-11.592,6.16c-6.943,0-12.319-6.384-12.319-13.832c0-7.448,5.376-13.832,12.319-13.832
		c6.553,0,11.872,4.592,11.872,13.664H215.212z M227.644,23.967c0-4.031-0.784-9.855-6.271-9.855c-5.376,0-6.16,5.824-6.16,9.855
		H227.644z"/>
	<path fill="#D2044C" d="M263.372,32.704c0,3.641-1.792,6.832-5.769,6.832c-3.304,0-4.088-2.128-4.536-5.04h-0.111
		c-1.568,4.144-4.872,5.376-9.017,5.376c-3.976,0-7.896-2.072-7.896-6.439c0-6.44,11.815-9.017,16.576-10.641v-5.208
		c0-2.8-3.641-3.472-5.769-3.472c-1.96,0-3.584,0.336-5.264,1.4c1.512,0.28,2.408,1.4,2.408,2.968c0,1.68-1.344,3.248-3.248,3.248
		S237.5,20.16,237.5,18.48c0-3.416,4.424-6.272,9.52-6.272c7.28,0,10.864,1.792,10.864,7.728v13.552c0,2.8,0.672,3.136,1.736,3.136
		c1.792,0,2.184-2.576,2.184-3.92H263.372z M252.62,24.584c-3.92,0.951-10.528,3.752-10.528,8.623c0,2.52,1.288,4.313,3.92,4.313
		c3.528,0,6.608-3.305,6.608-8.064V24.584z"/>
	<path fill="#D2044C" d="M299.1,39.2V20.44c0-3.92-1.231-5.992-4.76-5.992c-2.632,0-5.768,2.072-5.768,9.128v11.368
		c0,1.792,1.008,2.352,3.976,2.352V39.2h-9.24V20.44c0-3.92-1.231-5.992-4.76-5.992c-2.632,0-5.768,2.072-5.768,9.128v11.368
		c0,1.792,1.008,2.352,4.367,2.352V39.2h-13.775v-1.904c3.136,0,4.144-0.56,4.144-2.352V17.136c0-1.792-1.008-2.352-4.144-2.352
		V12.88l9.071-0.336v5.04h0.112c1.232-3.248,3.641-5.376,7.168-5.376c4.145,0,6.888,1.792,8.176,5.992
		c1.849-4.144,4.761-5.992,8.232-5.992c3.528,0,8.231,1.512,8.231,8.679v14.057c0,1.792,1.009,2.352,4.089,2.352V39.2H299.1z"/>
</g>
<path fill="#D2044C" d="M12.04,23.205c0.666-6.562,6.833-7.984,7.7-18.15c0.869,10.166,7.034,11.589,7.699,18.15
	c0.53,5.212-2.573,10.196-7.699,10.196S11.511,28.417,12.04,23.205z"/>
</svg>
