<svg width="122" height="122" viewBox="0 0 122 122" fill="none" xmlns="http://www.w3.org/2000/svg">
<path d="M113.803 48.6094C113.803 67.2906 100.269 67.2906 100.269 48.6094C100.269 37.5531 106.941 28.5938 106.941 28.5938C106.941 28.5938 113.803 37.5531 113.803 48.6094ZM103.891 82.35C103.891 96.6469 90.3562 96.6469 90.3562 82.35C90.3562 73.9625 97.0281 67.1 97.0281 67.1C97.0281 67.1 103.891 73.9625 103.891 82.35Z" fill="#ED4C5C"/>
<path d="M40.2219 105.797L18.1094 83.3031L67.4813 33.3594L89.5938 55.8531L40.2219 105.797Z" fill="#D0D0D0"/>
<path d="M57.5688 83.3032L84.6376 55.8532L67.4813 38.3157L40.2219 65.7657L57.5688 83.3032Z" fill="#ED4C5C"/>
<path d="M52.6125 88.2594L57.5688 83.3031L40.2219 65.7656L35.2656 70.7219L52.6125 88.2594Z" fill="#333333"/>
<path d="M83.4938 49.5625L88.4501 44.6063L78.5376 34.5032L73.5813 39.4594L83.4938 49.5625Z" fill="#BCC0C1"/>
<path d="M28.0219 118.187L30.3094 115.709L8.19688 93.2156L5.71875 95.6937L28.0219 118.187Z" fill="#42ADE2"/>
<path d="M24.2094 109.419L34.1219 99.5062L24.2094 89.4031L14.2969 99.5062L24.2094 109.419Z" fill="#42ADE2"/>
<path d="M82.1594 38.3156L82.9219 38.8875L83.4938 39.65L84.6376 40.7938L113.803 11.4375L115.138 7.625L115.709 5.71875L116.281 3.8125L82.1594 38.3156Z" fill="#BCC0C1"/>
</svg>
